<?xml version="1.0" encoding="iso-8859-1"?>
<!-- Generator: Adobe Illustrator 19.1.0, SVG Export Plug-In . SVG Version: 6.00 Build 0)  -->
<svg version="1.1" id="Layer_1" xmlns="http://www.w3.org/2000/svg" xmlns:xlink="http://www.w3.org/1999/xlink" x="0px" y="0px"
	 viewBox="0 0 288 288" style="enable-background:new 0 0 288 288;" xml:space="preserve">
<path style="fill:#EB1A3B;" d="M144,84.399c-32.917,0-59.601,26.684-59.601,59.601c0,32.917,26.684,59.601,59.601,59.601
	s59.601-26.684,59.601-59.601C203.601,111.083,176.917,84.399,144,84.399z M155.788,133.705l-0.603,8h-8.935v28h-9v-28h-5v-8h5
	v-3.786c0-2.325-0.078-5.909,1.61-8.128c1.778-2.35,4.151-3.948,8.349-3.948c6.84,0,9.686,0.976,9.686,0.976l-1.373,8.033
	c0,0-2.712-0.654-4.821-0.654c-2.109,0-4.451,0.756-4.451,2.863v4.644H155.788z"/>
</svg>
