<?xml version="1.0" encoding="iso-8859-1"?>
<!-- Generator: Adobe Illustrator 19.1.0, SVG Export Plug-In . SVG Version: 6.00 Build 0)  -->
<svg version="1.1" id="Layer_1" xmlns="http://www.w3.org/2000/svg" xmlns:xlink="http://www.w3.org/1999/xlink" x="0px" y="0px"
	 viewBox="0 0 288 288" style="enable-background:new 0 0 288 288;" xml:space="preserve">
<path style="fill:#EB1A3B;" d="M385.001,2951.985c-33.103,0-60.034,26.931-60.034,60.034s26.931,60.033,60.034,60.033
	c33.102,0,60.032-26.93,60.032-60.033S418.103,2951.985,385.001,2951.985z M405.96,3004.122c0.022,0.46,0.03,0.928,0.03,1.398
	c0,14.294-10.873,30.77-30.771,30.77c-6.104,0-11.79-1.791-16.576-4.857c0.845,0.101,1.707,0.149,2.58,0.149
	c5.063,0,9.729-1.728,13.431-4.631c-4.735-0.083-8.725-3.211-10.101-7.507c0.659,0.127,1.337,0.192,2.033,0.192
	c0.99,0,2.189-0.127,3.096-0.381c-4.949-0.99-8.432-5.361-8.432-10.604v-0.132c1,0.805,2.886,1.296,4.655,1.35
	c-2.9-1.942-4.932-5.253-4.932-9.001c0-1.982,0.469-3.839,1.4-5.441c5.339,6.547,13.276,10.847,22.262,11.3
	c-0.187-0.791-0.294-1.614-0.294-2.463c0-5.971,4.834-10.814,10.804-10.814c3.112,0,5.922,1.312,7.888,3.414
	c2.469-0.483,4.778-1.382,6.869-2.62c-0.804,2.524-2.519,4.642-4.756,5.98c2.186-0.262,4.271-0.843,6.211-1.702
	C409.913,3000.69,408.075,3002.596,405.96,3004.122z"/>
<g>
	<path style="fill:#EB1A3B;" d="M165.637,127.631c-0.503-1.296-1.105-2.22-2.076-3.191c-0.971-0.971-1.896-1.573-3.191-2.076
		c-0.978-0.38-2.448-0.832-5.154-0.956c-2.927-0.134-3.804-0.162-11.215-0.162c-7.411,0-8.289,0.028-11.215,0.162
		c-2.706,0.123-4.176,0.576-5.154,0.956c-1.296,0.503-2.22,1.105-3.191,2.076c-0.971,0.971-1.573,1.896-2.076,3.191
		c-0.38,0.978-0.832,2.448-0.956,5.154c-0.133,2.926-0.162,3.804-0.162,11.215c0,7.411,0.028,8.289,0.162,11.216
		c0.123,2.706,0.576,4.176,0.956,5.154c0.503,1.296,1.105,2.22,2.076,3.191c0.971,0.971,1.896,1.573,3.191,2.076
		c0.978,0.38,2.448,0.832,5.154,0.956c2.926,0.133,3.804,0.162,11.215,0.162s8.289-0.028,11.215-0.162
		c2.706-0.124,4.176-0.576,5.154-0.956c1.296-0.503,2.22-1.105,3.191-2.076c0.971-0.971,1.573-1.896,2.076-3.191
		c0.38-0.978,0.832-2.448,0.956-5.154c0.134-2.927,0.162-3.804,0.162-11.216c0-7.411-0.028-8.289-0.162-11.215
		C166.469,130.079,166.017,128.609,165.637,127.631z M144,158.253c-7.871,0-14.253-6.381-14.253-14.253
		c0-7.871,6.381-14.253,14.253-14.253s14.253,6.381,14.253,14.253C158.253,151.872,151.871,158.253,144,158.253z M158.816,132.515
		c-1.839,0-3.331-1.491-3.331-3.331s1.491-3.331,3.331-3.331s3.331,1.491,3.331,3.331S160.655,132.515,158.816,132.515z"/>
	<path style="fill:#EB1A3B;" d="M144,84.474c-32.823,0-59.526,26.704-59.526,59.526c0,32.823,26.703,59.526,59.526,59.526
		c32.823,0,59.526-26.703,59.526-59.526C203.526,111.177,176.823,84.474,144,84.474z M171.588,155.443
		c-0.135,2.954-0.604,4.972-1.29,6.737c-0.709,1.825-1.658,3.373-3.201,4.916c-1.543,1.543-3.091,2.492-4.916,3.201
		c-1.766,0.686-3.783,1.155-6.737,1.29c-2.96,0.135-3.906,0.167-11.443,0.167c-7.538,0-8.483-0.032-11.443-0.167
		c-2.954-0.135-4.972-0.604-6.737-1.29c-1.825-0.709-3.373-1.658-4.916-3.201c-1.543-1.543-2.492-3.091-3.201-4.916
		c-0.686-1.766-1.155-3.783-1.29-6.737c-0.135-2.96-0.167-3.906-0.167-11.443c0-7.538,0.032-8.483,0.167-11.443
		c0.135-2.954,0.604-4.972,1.29-6.737c0.709-1.825,1.658-3.373,3.201-4.916c1.543-1.543,3.091-2.492,4.916-3.201
		c1.765-0.686,3.783-1.155,6.737-1.29c2.96-0.135,3.906-0.167,11.443-0.167c7.538,0,8.483,0.032,11.443,0.167
		c2.954,0.135,4.972,0.604,6.737,1.29c1.825,0.709,3.373,1.658,4.916,3.201c1.543,1.543,2.492,3.091,3.201,4.916
		c0.686,1.766,1.155,3.783,1.29,6.737c0.135,2.96,0.167,3.906,0.167,11.443C171.755,151.538,171.723,152.483,171.588,155.443z"/>
	<circle style="fill:#EB1A3B;" cx="144" cy="144" r="9.252"/>
</g>
</svg>
