<?xml version="1.0" encoding="iso-8859-1"?>
<!-- Generator: Adobe Illustrator 19.1.0, SVG Export Plug-In . SVG Version: 6.00 Build 0)  -->
<svg version="1.1" id="Layer_1" xmlns="http://www.w3.org/2000/svg" xmlns:xlink="http://www.w3.org/1999/xlink" x="0px" y="0px"
	 viewBox="0 0 288 288" style="enable-background:new 0 0 288 288;" xml:space="preserve">
<path style="fill:#EB1A3B;" d="M385.001,2951.985c-33.103,0-60.034,26.931-60.034,60.034s26.931,60.033,60.034,60.033
	c33.102,0,60.032-26.93,60.032-60.033S418.103,2951.985,385.001,2951.985z M405.96,3004.122c0.022,0.46,0.03,0.928,0.03,1.398
	c0,14.294-10.873,30.77-30.771,30.77c-6.104,0-11.79-1.791-16.576-4.857c0.845,0.101,1.707,0.149,2.58,0.149
	c5.063,0,9.729-1.728,13.431-4.631c-4.735-0.083-8.725-3.211-10.101-7.507c0.659,0.127,1.337,0.192,2.033,0.192
	c0.99,0,2.189-0.127,3.096-0.381c-4.949-0.99-8.432-5.361-8.432-10.604v-0.132c1,0.805,2.886,1.296,4.655,1.35
	c-2.9-1.942-4.932-5.253-4.932-9.001c0-1.982,0.469-3.839,1.4-5.441c5.339,6.547,13.276,10.847,22.262,11.3
	c-0.187-0.791-0.294-1.614-0.294-2.463c0-5.971,4.834-10.814,10.804-10.814c3.112,0,5.922,1.312,7.888,3.414
	c2.469-0.483,4.778-1.382,6.869-2.62c-0.804,2.524-2.519,4.642-4.756,5.98c2.186-0.262,4.271-0.843,6.211-1.702
	C409.913,3000.69,408.075,3002.596,405.96,3004.122z"/>
<path style="fill:#EB1A3B;" d="M144.001,83.966c-33.103,0-60.034,26.931-60.034,60.034c0,33.103,26.931,60.034,60.034,60.034
	c33.102,0,60.032-26.931,60.032-60.034C204.033,110.897,177.103,83.966,144.001,83.966z M164.96,136.103
	c0.022,0.46,0.03,0.929,0.03,1.398c0,14.294-10.873,30.769-30.771,30.769c-6.104,0-11.79-1.791-16.576-4.857
	c0.845,0.101,1.707,0.149,2.58,0.149c5.063,0,9.729-1.728,13.431-4.631c-4.735-0.083-8.725-3.211-10.101-7.507
	c0.659,0.127,1.337,0.192,2.033,0.192c0.99,0,2.189-0.127,3.096-0.381c-4.949-0.99-8.433-5.361-8.433-10.604v-0.132
	c1,0.805,2.886,1.296,4.655,1.351c-2.9-1.942-4.932-5.253-4.932-9.001c0-1.982,0.469-3.839,1.4-5.441
	c5.339,6.547,13.276,10.847,22.262,11.3c-0.187-0.791-0.294-1.614-0.294-2.463c0-5.971,4.834-10.814,10.804-10.814
	c3.112,0,5.922,1.313,7.888,3.414c2.469-0.483,4.778-1.382,6.869-2.62c-0.804,2.524-2.519,4.642-4.756,5.981
	c2.186-0.262,4.271-0.843,6.211-1.702C168.913,132.671,167.075,134.577,164.96,136.103z"/>
</svg>
